<?xml version="1.0" standalone="no"?>
<!DOCTYPE svg PUBLIC "-//W3C//DTD SVG 20010904//EN"
 "http://www.w3.org/TR/2001/REC-SVG-20010904/DTD/svg10.dtd">
<svg version="1.0" xmlns="http://www.w3.org/2000/svg"
 width="488.000000pt" height="488.000000pt" viewBox="0 0 488.000000 488.000000"
 preserveAspectRatio="xMidYMid meet">

<g transform="translate(0.000000,488.000000) scale(0.100000,-0.100000)"
fill="#000000" stroke="none">
<path d="M2320 4829 c-665 -61 -1193 -375 -1444 -858 -59 -114 -97 -219 -120
-328 -43 -202 -46 -573 -7 -817 12 -71 21 -133 21 -138 0 -5 -15 -1 -32 9 -21
11 -56 17 -99 18 -56 0 -73 -4 -115 -30 -59 -37 -107 -111 -126 -194 -30 -132
-4 -384 58 -571 53 -158 218 -355 353 -423 41 -20 79 -37 86 -37 8 0 21 -42
35 -112 60 -304 163 -517 344 -714 36 -39 63 -74 60 -77 -3 -2 15 -8 38 -11
24 -4 59 -16 77 -27 27 -16 31 -22 21 -35 -19 -22 8 -46 89 -79 48 -19 84 -42
117 -76 35 -36 56 -49 76 -49 22 0 33 -8 49 -34 11 -19 33 -39 50 -45 16 -6
44 -21 61 -33 33 -24 81 -51 157 -88 50 -25 171 -49 251 -50 30 0 98 7 152 16
89 15 100 15 116 1 16 -14 26 -12 122 24 107 41 239 79 272 79 28 0 398 247
444 296 24 27 53 46 72 50 24 5 54 32 124 111 215 242 305 423 368 740 l22
111 37 11 c56 16 158 86 217 147 65 68 148 187 178 256 56 129 90 333 83 500
-6 147 -22 199 -83 267 -75 84 -173 102 -272 52 l-39 -20 14 82 c51 306 60
449 44 651 -19 230 -59 383 -148 561 -174 348 -516 624 -947 764 -253 83 -552
121 -776 100z m400 -115 c395 -55 745 -219 991 -463 156 -156 246 -300 314
-504 53 -161 68 -272 68 -502 0 -198 -2 -216 -49 -495 -11 -63 -19 -203 -24
-420 -12 -487 -37 -624 -157 -865 -44 -87 -114 -187 -146 -208 l-24 -16 4 47
5 47 -47 -70 c-85 -128 -125 -155 -125 -87 l-1 37 -20 -37 c-11 -21 -23 -38
-27 -38 -4 0 -15 22 -25 49 -21 59 -91 139 -152 175 -119 70 -259 72 -536 8
-97 -23 -202 -44 -235 -47 -58 -6 -58 -6 -27 9 17 8 41 28 54 45 36 48 78 64
134 49 51 -14 66 -8 97 33 33 44 34 92 3 154 -16 30 -32 55 -36 55 -4 0 0 -26
9 -59 14 -52 14 -63 1 -97 -14 -36 -18 -39 -50 -37 -18 2 -49 4 -66 5 -23 1
-47 -8 -80 -31 -43 -30 -55 -34 -115 -34 -57 0 -72 4 -102 27 -54 41 -81 48
-133 34 -43 -10 -47 -10 -65 12 -20 25 -23 76 -7 133 14 52 6 56 -21 10 -34
-56 -38 -123 -10 -167 26 -42 57 -53 110 -37 48 14 74 5 120 -44 19 -21 49
-43 65 -51 l30 -13 -35 -1 c-19 0 -89 12 -155 26 -66 14 -172 36 -235 49 -232
50 -384 22 -497 -91 -39 -39 -62 -80 -99 -173 -9 -22 -11 -20 -39 30 l-30 54
-3 -38 c-2 -20 -7 -37 -11 -37 -13 0 -79 75 -115 132 -20 32 -38 58 -40 58 -2
0 -2 -18 1 -40 7 -52 -7 -51 -49 2 -49 62 -63 87 -109 190 -79 181 -116 405
-129 793 -5 154 -11 294 -14 310 -48 271 -61 407 -60 640 0 320 25 462 114
652 96 205 278 415 470 542 281 187 559 277 965 315 63 6 230 -4 345 -20z
m-2014 -2113 c18 -11 43 -35 58 -54 22 -29 27 -47 32 -128 l6 -94 -31 49 c-40
61 -129 151 -157 158 -12 3 -27 2 -34 -2 -9 -5 8 -28 55 -74 38 -37 65 -71 62
-78 -52 -118 -60 -146 -60 -218 0 -76 15 -122 46 -149 13 -10 13 -7 1 26 -18
51 -17 125 2 192 18 64 38 96 54 86 26 -16 60 -105 60 -157 0 -66 26 -310 39
-367 7 -33 6 -43 -4 -47 -23 -9 -71 24 -114 77 -47 60 -54 53 -13 -12 38 -59
87 -99 121 -99 26 0 29 -4 40 -57 17 -86 17 -86 -31 -62 -87 44 -228 208 -278
321 -10 24 -31 97 -46 163 -22 98 -28 145 -28 255 -1 126 1 139 26 192 43 91
122 123 194 79z m3642 -1 c69 -43 102 -183 83 -354 -15 -133 -54 -292 -87
-359 -60 -117 -183 -256 -266 -298 -44 -22 -44 -22 -27 64 10 48 15 57 33 57
33 0 81 35 113 82 43 62 49 90 11 43 -49 -59 -76 -82 -105 -90 -14 -3 -27 -5
-29 -3 -1 2 2 23 7 48 14 61 39 302 39 376 0 50 5 68 31 109 l31 49 19 -23
c40 -50 58 -180 35 -256 l-15 -50 24 29 c55 68 48 189 -20 349 -6 15 7 32 58
82 47 47 62 67 53 74 -28 24 -150 -82 -198 -172 l-17 -32 -1 89 c0 82 2 92 27
125 61 81 132 103 201 61z m-2268 -1409 c311 -64 430 -65 715 -6 94 19 205 38
247 42 70 5 82 3 130 -20 68 -34 98 -78 105 -155 22 -246 -308 -635 -542 -636
-84 0 -112 9 -131 45 -18 35 -15 40 29 55 17 6 33 16 35 22 3 9 -52 12 -217
12 -122 0 -221 -4 -221 -9 0 -5 21 -17 46 -27 l45 -19 -23 -35 c-19 -27 -33
-36 -68 -42 -86 -16 -174 14 -277 94 -118 90 -248 257 -294 376 -32 83 -37
187 -10 240 22 42 63 78 109 93 43 14 164 2 322 -30z"/>
<path d="M1526 3053 c-33 -10 -45 -17 -36 -23 9 -6 8 -9 -8 -14 -11 -4 -49
-25 -84 -48 -44 -29 -57 -34 -43 -17 l20 23 -32 -22 c-31 -22 -93 -106 -93
-126 0 -6 5 -3 11 7 5 9 14 17 19 17 4 0 -6 -26 -23 -57 l-30 -58 28 25 28 25
-26 -39 c-32 -48 -27 -59 11 -23 38 36 137 94 175 103 28 6 29 8 12 14 -15 5
1 12 59 25 129 29 217 17 541 -71 50 -14 65 -14 90 -4 17 7 37 12 46 11 18 -2
42 30 53 69 5 16 -2 10 -19 -17 -35 -57 -47 -54 -25 5 9 26 20 63 23 82 6 36
6 36 -22 -32 -8 -18 -10 -10 -10 37 -1 43 -4 56 -11 45 -5 -8 -10 -26 -11 -40
0 -16 -9 0 -25 44 -30 86 -38 95 -29 31 l7 -50 -28 26 c-16 14 -47 36 -69 50
l-39 23 22 -36 23 -36 -49 18 c-128 49 -353 65 -456 33z"/>
<path d="M2781 3015 c-12 -31 -21 -63 -21 -72 0 -27 -13 -6 -20 34 -7 33 -8
28 -10 -32 l-2 -70 -19 50 -19 50 6 -40 c3 -22 15 -61 26 -87 17 -40 27 -50
58 -59 34 -10 51 -7 156 24 135 41 271 67 351 67 74 0 205 -30 178 -41 -13 -5
-15 -8 -5 -8 25 -2 131 -59 176 -96 51 -42 62 -44 36 -7 -33 48 -37 58 -12 37
l23 -20 -12 23 c-7 12 -9 32 -6 43 8 25 -21 72 -77 124 -24 22 -37 33 -30 25
26 -30 10 -29 -31 3 -24 18 -58 39 -76 47 -19 7 -28 16 -21 20 6 4 -12 14 -41
23 -100 33 -319 17 -446 -31 -58 -22 -64 -18 -31 23 l21 27 -31 -16 c-18 -9
-48 -31 -68 -49 l-37 -32 5 48 c3 26 4 47 2 47 -1 0 -12 -25 -23 -55z m879
-199 c0 -6 -7 -2 -15 8 -8 11 -15 25 -15 30 0 6 7 2 15 -8 8 -11 15 -25 15
-30z"/>
<path d="M2670 2874 c0 -16 39 -74 50 -74 6 0 -1 17 -17 38 -15 20 -28 39 -30
41 -2 2 -3 0 -3 -5z"/>
<path d="M1494 2600 c-117 -13 -184 -61 -240 -172 -26 -52 -26 -52 -8 -86 28
-51 144 -154 216 -190 169 -86 384 -73 536 31 87 59 161 122 161 137 1 19 -62
152 -91 193 l-22 30 49 -6 48 -7 -19 21 c-46 51 -63 54 -319 56 -132 0 -272
-2 -311 -7z m239 -89 c8 -30 -15 -66 -45 -69 -44 -5 -68 14 -68 53 l0 35 54 0
c44 0 55 -3 59 -19z m-188 -8 c-32 -78 -27 -144 17 -206 21 -30 75 -61 125
-71 73 -16 179 47 204 121 11 35 8 122 -5 154 -12 28 91 6 124 -26 29 -27 80
-123 80 -148 0 -24 -92 -100 -162 -135 -85 -42 -153 -55 -257 -50 -70 3 -99
10 -153 35 -71 34 -154 104 -189 159 l-21 34 22 34 c31 52 85 94 127 101 21 4
43 8 48 10 6 2 18 4 29 4 13 1 16 -3 11 -16z"/>
<path d="M2866 2596 c-22 -8 -51 -26 -65 -41 l-26 -25 49 6 49 7 -26 -35 c-31
-40 -87 -160 -87 -185 0 -17 80 -88 165 -146 92 -62 252 -95 374 -77 127 20
291 122 365 228 l28 41 -25 55 c-33 72 -100 138 -163 160 -69 25 -578 34 -638
12z m354 -99 c0 -41 -15 -57 -55 -57 -38 0 -55 16 -55 50 0 36 6 40 62 40 48
0 48 0 48 -33z m-185 6 c-23 -56 -27 -95 -14 -140 27 -97 132 -159 228 -133
50 13 109 63 127 107 19 43 18 117 -2 155 l-16 30 54 -7 c95 -13 122 -30 169
-104 l28 -44 -29 -41 c-43 -63 -105 -115 -179 -149 -117 -55 -284 -49 -410 14
-70 35 -161 113 -161 138 0 28 48 115 80 146 26 25 47 33 124 44 4 0 5 -7 1
-16z"/>
<path d="M2657 2133 c-16 -57 -16 -83 -1 -180 15 -108 37 -173 57 -173 6 0 7
22 3 63 -4 34 -13 116 -21 182 -16 140 -13 125 -24 125 -5 0 -12 -8 -14 -17z"/>
<path d="M1751 1201 c-52 -14 -54 -71 -3 -71 25 0 36 -11 88 -91 81 -125 198
-235 307 -289 115 -56 191 -74 322 -74 130 -1 191 12 302 65 107 51 235 170
313 292 41 64 61 86 77 87 80 1 66 64 -19 85 -19 5 -37 1 -60 -13 -37 -23
-189 -54 -348 -73 -155 -17 -442 -15 -589 5 -166 22 -304 54 -314 72 -8 15
-35 17 -76 5z m354 -138 c82 -13 169 -17 345 -17 233 0 359 11 538 48 34 8 62
11 62 7 0 -3 -21 -32 -46 -63 -35 -45 -54 -60 -87 -69 -272 -73 -877 -59 -965
24 -22 20 -82 100 -82 110 0 2 28 -2 63 -9 34 -8 112 -21 172 -31z"/>
</g>
</svg>
